<mxfile host="app.diagrams.net" modified="2023-07-30T04:35:36.770Z" agent="Mozilla/5.0 (Linux; Android 10; K) AppleWebKit/537.36 (KHTML, like Gecko) Chrome/114.0.0.0 Mobile Safari/537.36" version="21.6.6" etag="-eOgucQhQlbQjEZ-SRsb" type="github">
  <diagram name="Page-1" id="hLozKTMKjiij8GWa8CnI">
    <mxGraphModel>
      <root>
        <mxCell id="0" />
        <mxCell id="1" parent="0" />
      </root>
    </mxGraphModel>
  </diagram>
</mxfile>
